<?xml version="1.0" standalone="no"?>
<!DOCTYPE svg PUBLIC "-//W3C//DTD SVG 20010904//EN"
 "http://www.w3.org/TR/2001/REC-SVG-20010904/DTD/svg10.dtd">
<svg version="1.0" xmlns="http://www.w3.org/2000/svg"
 width="393.000000pt" height="393.000000pt" viewBox="0 0 393.000000 393.000000"
 preserveAspectRatio="xMidYMid meet">
<metadata>
Created by potrace 1.11, written by Peter Selinger 2001-2013
</metadata>
<g transform="translate(0.000000,393.000000) scale(0.100000,-0.100000)"
fill="#000000" stroke="none">
<path d="M2255 2260 c-11 -5 -45 -9 -76 -9 l-55 -1 13 -77 c20 -110 13 -167
-26 -230 -18 -29 -30 -57 -26 -62 6 -10 -54 -76 -77 -83 -16 -6 -106 24 -145
48 -15 10 -57 37 -93 60 -152 98 -191 107 -385 93 -118 -9 -146 -15 -175 -34
-61 -39 -141 -119 -162 -160 l-20 -40 23 21 c56 49 132 81 230 98 20 4 55 20
78 37 l42 30 92 -49 c51 -28 120 -62 154 -76 81 -34 231 -56 328 -49 l76 6
-10 -26 c-12 -32 -30 -61 -92 -147 -26 -36 -56 -84 -67 -107 -12 -22 -39 -62
-61 -87 -21 -24 -65 -85 -97 -133 -32 -48 -67 -97 -76 -107 -54 -59 -30 -95
107 -164 123 -62 156 -73 235 -79 103 -7 99 -4 84 -70 -8 -32 -14 -106 -14
-165 0 -96 -2 -108 -17 -109 -10 0 -27 -3 -38 -6 -11 -3 -55 -7 -97 -10 -93
-6 -94 -23 -2 -23 58 0 67 -3 96 -31 32 -30 34 -30 99 -24 76 8 113 0 105 -21
-4 -10 3 -14 27 -13 30 1 31 1 7 9 -22 6 -23 8 -7 15 20 8 133 2 159 -9 11 -5
18 -2 21 11 4 17 5 17 6 -1 1 -12 6 -16 16 -12 8 3 15 2 15 -2 0 -4 21 -8 48
-9 26 -1 81 -5 122 -10 l75 -7 -55 -7 c-53 -6 -52 -6 20 -6 41 0 81 5 88 10
12 9 120 5 227 -8 38 -4 37 -4 -10 10 -38 11 -42 13 -15 10 95 -11 166 -15
176 -8 18 13 34 50 34 77 0 14 8 29 18 34 9 5 75 6 145 3 71 -3 136 -3 145 0
9 3 50 2 90 -2 40 -4 83 -4 95 0 14 6 32 3 51 -6 25 -13 28 -19 23 -49 -4 -24
-2 -34 7 -34 8 0 11 10 8 28 -7 48 18 62 109 62 78 0 79 0 79 25 0 23 -3 25
-49 25 -30 0 -55 6 -64 15 -13 13 -16 13 -21 0 -4 -12 -43 -14 -233 -14 -125
1 -238 5 -251 10 -16 6 -29 6 -37 -1 -19 -16 -392 -11 -409 5 -29 29 -100 44
-162 34 -32 -5 -76 -10 -96 -11 -21 -1 -38 -4 -38 -7 0 -3 -20 -5 -44 -3 -47
4 -91 -12 -80 -30 6 -10 -12 -28 -28 -28 -14 0 -9 195 7 246 8 27 15 63 15 80
0 31 1 31 59 37 74 8 134 35 126 56 -6 15 -28 92 -66 231 -10 36 -42 139 -73
230 -72 213 -107 340 -116 415 -4 34 -16 85 -27 115 -11 30 -23 84 -27 120 -9
83 -26 160 -34 159 -4 0 -16 -4 -27 -9z m65 -1322 c1 -7 2 -67 4 -134 2 -87 7
-130 19 -154 10 -18 17 -41 17 -52 0 -24 -27 -23 -35 2 -5 16 -15 20 -48 20
-49 0 -40 -16 13 -23 26 -3 20 -5 -20 -6 -30 0 -83 -2 -117 -4 -50 -3 -63 -1
-63 11 0 8 21 84 48 169 38 126 51 155 67 157 11 2 38 8 60 14 56 13 55 13 55
0z"/>
<path d="M176 1784 c-3 -8 -9 -40 -12 -70 -8 -65 5 -85 80 -120 57 -26 96 -23
169 13 49 25 61 43 27 43 -27 0 -124 35 -145 52 -9 7 -38 32 -65 56 -39 35
-49 40 -54 26z"/>
<path d="M960 1743 c-30 -8 -120 -17 -200 -22 -124 -6 -152 -11 -192 -32 l-47
-24 67 -1 c55 -1 78 -7 127 -34 52 -28 67 -31 111 -27 73 7 123 37 163 96 19
28 32 53 30 54 -2 2 -29 -3 -59 -10z"/>
<path d="M1940 530 c0 -5 7 -10 16 -10 8 0 12 5 9 10 -3 6 -10 10 -16 10 -5 0
-9 -4 -9 -10z"/>
<path d="M88 363 c7 -3 16 -2 19 1 4 3 -2 6 -13 5 -11 0 -14 -3 -6 -6z"/>
<path d="M305 342 c30 -14 130 -23 119 -12 -6 6 -39 12 -74 15 -42 4 -58 2
-45 -3z"/>
<path d="M225 320 c-3 -5 1 -10 10 -10 9 0 13 5 10 10 -3 6 -8 10 -10 10 -2 0
-7 -4 -10 -10z"/>
<path d="M348 313 c7 -3 16 -2 19 1 4 3 -2 6 -13 5 -11 0 -14 -3 -6 -6z"/>
<path d="M1623 293 c15 -2 39 -2 55 0 15 2 2 4 -28 4 -30 0 -43 -2 -27 -4z"/>
<path d="M2388 273 c6 -2 18 -2 25 0 6 3 1 5 -13 5 -14 0 -19 -2 -12 -5z"/>
<path d="M1448 263 c7 -3 16 -2 19 1 4 3 -2 6 -13 5 -11 0 -14 -3 -6 -6z"/>
<path d="M13 249 c10 -6 44 -12 75 -15 l57 -4 -60 15 c-74 17 -98 19 -72 4z"/>
<path d="M215 240 c-27 -6 -24 -7 20 -11 59 -6 63 -5 33 7 -13 6 -36 7 -53 4z"/>
<path d="M1298 223 c12 -2 32 -2 45 0 12 2 2 4 -23 4 -25 0 -35 -2 -22 -4z"/>
<path d="M718 187 c29 -7 52 -7 75 1 28 9 23 10 -43 10 -72 0 -73 -1 -32 -11z"/>
<path d="M508 183 c6 -2 18 -2 25 0 6 3 1 5 -13 5 -14 0 -19 -2 -12 -5z"/>
<path d="M573 183 c9 -2 23 -2 30 0 6 3 -1 5 -18 5 -16 0 -22 -2 -12 -5z"/>
<path d="M1748 183 c12 -2 32 -2 45 0 12 2 2 4 -23 4 -25 0 -35 -2 -22 -4z"/>
<path d="M320 170 c0 -6 17 -10 37 -10 43 0 41 5 -4 13 -19 4 -33 2 -33 -3z"/>
<path d="M1865 171 c-4 -8 26 -11 96 -11 56 0 100 2 98 4 -11 10 -188 16 -194
7z"/>
<path d="M1558 153 c7 -3 16 -2 19 1 4 3 -2 6 -13 5 -11 0 -14 -3 -6 -6z"/>
<path d="M1594 149 c-3 -5 16 -9 42 -9 26 0 44 3 41 6 -10 11 -76 13 -83 3z"/>
<path d="M2028 133 c7 -3 16 -2 19 1 4 3 -2 6 -13 5 -11 0 -14 -3 -6 -6z"/>
<path d="M598 118 c12 -12 213 -26 202 -15 -3 3 -40 7 -83 8 -43 2 -81 7 -83
11 -3 4 -15 8 -27 8 -16 0 -18 -3 -9 -12z"/>
<path d="M1371 116 c10 -8 89 -13 83 -5 -3 5 -24 9 -46 9 -23 0 -39 -2 -37 -4z"/>
<path d="M1778 103 c12 -2 32 -2 45 0 12 2 2 4 -23 4 -25 0 -35 -2 -22 -4z"/>
<path d="M3908 93 c7 -3 16 -2 19 1 4 3 -2 6 -13 5 -11 0 -14 -3 -6 -6z"/>
<path d="M903 83 c15 -2 37 -2 50 0 12 2 0 4 -28 4 -27 0 -38 -2 -22 -4z"/>
<path d="M3788 83 c18 -2 45 -2 60 0 15 2 0 4 -33 4 -33 0 -45 -2 -27 -4z"/>
<path d="M523 73 c9 -2 25 -2 35 0 9 3 1 5 -18 5 -19 0 -27 -2 -17 -5z"/>
<path d="M1251 76 c2 -2 29 -6 59 -9 34 -3 47 -2 35 3 -19 8 -103 14 -94 6z"/>
<path d="M848 63 c6 -2 18 -2 25 0 6 3 1 5 -13 5 -14 0 -19 -2 -12 -5z"/>
<path d="M3735 40 l-40 -7 50 -1 c28 0 61 4 75 8 22 7 21 8 -10 8 -19 -1 -53
-4 -75 -8z"/>
<path d="M438 33 c7 -3 16 -2 19 1 4 3 -2 6 -13 5 -11 0 -14 -3 -6 -6z"/>
<path d="M1163 33 c9 -2 23 -2 30 0 6 3 -1 5 -18 5 -16 0 -22 -2 -12 -5z"/>
<path d="M3658 33 c7 -3 16 -2 19 1 4 3 -2 6 -13 5 -11 0 -14 -3 -6 -6z"/>
<path d="M3910 20 c-13 -8 -12 -10 3 -10 9 0 17 5 17 10 0 12 -1 12 -20 0z"/>
<path d="M1060 10 c36 -11 112 -11 85 0 -11 5 -40 8 -65 8 -37 0 -41 -1 -20
-8z"/>
</g>
</svg>
